<?xml version="1.0" encoding="UTF-8"?>
<svg id="Camada_1" data-name="Camada 1" xmlns="http://www.w3.org/2000/svg" viewBox="0 0 52 52">
  <defs>
    <style>
      .cls-1 {
        fill: #009ee2;
      }

      .cls-1, .cls-2, .cls-3 {
        stroke-width: 0px;
      }

      .cls-2 {
        fill: #fff;
      }

      .cls-3 {
        fill: #11101d;
      }
    </style>
  </defs>
  <rect class="cls-3" width="52" height="52" rx="10.38" ry="10.38"/>
  <g>
    <path class="cls-2" d="m20.01,26.02c0,1.71,0,3.42,0,5.13.02,3.67,3.21,6.4,6.86,5.85,3-.45,5.04-2.76,5.13-5.81.07-2.46,1.84-4.23,4.3-4.28,1.06-.02,2.13-.01,3.2,0,.79,0,1.17.37,1.16,1.15-.03,1.99.14,3.98-.3,5.95-1.15,5.11-4.11,8.75-8.97,10.65-5.2,2.04-10.13,1.26-14.53-2.17-2.93-2.28-4.71-5.34-5.28-9.04-.15-.99-.2-2.01-.21-3.02-.03-3.16-.01-6.32,0-9.48,0-6.48,4.08-12.11,10.26-14.04,5.8-1.82,12.13.07,15.94,4.97,2.1,2.7,3.11,5.77,3.1,9.18,0,.98,0,1.96,0,2.93,0,.6-.28,1.01-.84,1.01-1.53.02-3.09.12-4.58-.13-1.95-.34-3.17-2.05-3.24-4.03-.1-3-1.77-5.13-4.7-5.81-3.27-.76-6.67,1.32-7.19,4.88-.06.43-.09.87-.09,1.3-.01,1.61,0,3.21,0,4.82Z"/>
    <path class="cls-1" d="m30.36,26c0,1.61.01,3.21,0,4.82-.02,1.85-.74,3.31-2.45,4.17-2.66,1.34-5.95-.44-6.17-3.41-.13-1.81-.08-3.62-.09-5.44-.01-1.64-.02-3.28,0-4.92.02-1.87.74-3.33,2.47-4.21,2.62-1.33,5.97.48,6.14,3.4.11,1.86.02,3.73.02,5.59.03,0,.05,0,.08,0Z"/>
  </g>
</svg>