<?xml version="1.0" encoding="utf-8"?>
<!-- Generator: Adobe Illustrator 27.8.1, SVG Export Plug-In . SVG Version: 6.00 Build 0)  -->
<svg version="1.1" id="Camada_1" xmlns="http://www.w3.org/2000/svg" xmlns:xlink="http://www.w3.org/1999/xlink" x="0px" y="0px"
	 viewBox="0 0 16.3 22" style="enable-background:new 0 0 16.3 22;" xml:space="preserve">
<style type="text/css">
	.st0{fill:#FFFFFF;}
	.st1{fill:#009FE3;}
</style>
<path class="st0" d="M4.8,11c0,0.9,0,1.9,0,2.9c0,2.1,1.8,3.6,3.8,3.3c1.7-0.2,2.8-1.5,2.9-3.2c0-1.4,1-2.4,2.4-2.4
	c0.6,0,1.2,0,1.8,0c0.4,0,0.7,0.2,0.6,0.6c0,1.1,0.1,2.2-0.2,3.3c-0.6,2.8-2.3,4.9-5,5.9c-2.9,1.1-5.6,0.7-8.1-1.2
	c-1.6-1.3-2.6-3-2.9-5C0,14.6,0,14,0,13.5c0-1.8,0-3.5,0-5.3c0-3.6,2.3-6.7,5.7-7.8c3.2-1,6.8,0,8.9,2.8c1.2,1.5,1.7,3.2,1.7,5.1
	c0,0.5,0,1.1,0,1.6c0,0.3-0.1,0.6-0.5,0.6c-0.9,0-1.7,0.1-2.6-0.1c-1.1-0.2-1.8-1.1-1.8-2.2c-0.1-1.7-1-2.9-2.6-3.2
	c-1.8-0.4-3.7,0.7-4,2.7c0,0.2-0.1,0.5-0.1,0.7C4.8,9.2,4.8,10.1,4.8,11L4.8,11z"/>
<path class="st1" d="M10.6,11c0,0.9,0,1.8,0,2.7c0,1-0.4,1.8-1.4,2.3c-1.5,0.8-3.3-0.2-3.4-1.9c-0.1-1,0-2-0.1-3c0-0.9,0-1.8,0-2.7
	c0-1,0.4-1.9,1.4-2.3c1.5-0.7,3.3,0.3,3.4,1.9C10.6,8.9,10.6,10,10.6,11C10.6,11,10.6,11,10.6,11L10.6,11z"/>
</svg>
