<?xml version="1.0" encoding="UTF-8"?>
<svg id="Camada_1" data-name="Camada 1" xmlns="http://www.w3.org/2000/svg" viewBox="0 0 27.3 36.83">
  <defs>
    <style>
      .cls-1 {
        fill: #009ee2;
      }

      .cls-1, .cls-2 {
        stroke-width: 0px;
      }

      .cls-2 {
        fill: #fff;
      }
    </style>
  </defs>
  <path class="cls-2" d="m8.07,18.44c0,1.59,0,3.19,0,4.78.02,3.42,2.99,5.96,6.39,5.45,2.8-.42,4.69-2.57,4.77-5.41.06-2.29,1.72-3.94,4.01-3.98.99-.02,1.98-.01,2.98,0,.74,0,1.09.35,1.08,1.07-.03,1.85.13,3.71-.28,5.54-1.07,4.75-3.83,8.15-8.36,9.92-4.84,1.9-9.43,1.17-13.53-2.02C2.4,31.65.74,28.8.21,25.35c-.14-.93-.19-1.87-.2-2.81-.02-2.94-.01-5.89,0-8.83C.01,7.68,3.8,2.43,9.56.63c5.4-1.69,11.3.07,14.85,4.63,1.96,2.52,2.9,5.37,2.89,8.55,0,.91,0,1.82,0,2.73,0,.55-.26.94-.78.94-1.42.02-2.88.12-4.26-.12-1.81-.31-2.96-1.91-3.01-3.76-.09-2.79-1.65-4.78-4.37-5.41-3.05-.71-6.21,1.23-6.7,4.54-.06.4-.08.81-.09,1.21,0,1.5,0,2.99,0,4.49Z"/>
  <path class="cls-1" d="m17.71,18.42c0,1.5.01,2.99,0,4.49-.02,1.72-.68,3.08-2.28,3.88-2.48,1.25-5.54-.41-5.74-3.18-.12-1.68-.08-3.38-.09-5.06-.01-1.53-.01-3.06,0-4.58.02-1.74.69-3.1,2.3-3.92,2.44-1.24,5.56.45,5.72,3.17.1,1.73.02,3.47.02,5.21.02,0,.05,0,.07,0Z"/>
</svg>